<?xml version="1.0" encoding="UTF-8" standalone="no"?>
<svg
   xmlns:dc="http://purl.org/dc/elements/1.1/"
   xmlns:cc="http://web.resource.org/cc/"
   xmlns:rdf="http://www.w3.org/1999/02/22-rdf-syntax-ns#"
   xmlns:svg="http://www.w3.org/2000/svg"
   xmlns="http://www.w3.org/2000/svg"
   xmlns:sodipodi="http://sodipodi.sourceforge.net/DTD/sodipodi-0.dtd"
   xmlns:inkscape="http://www.inkscape.org/namespaces/inkscape"
   width="85"
   height="20"
   id="svg2160"
   sodipodi:version="0.32"
   inkscape:version="0.45"
   inkscape:output_extension="org.inkscape.output.svg.inkscape"
   sodipodi:docbase="C:\Proyectos\Aplicaciones\Copia de 01 Comercializacion\Recursos"
   sodipodi:docname="LogoGrupoBonnysa.svg"
   sodipodi:modified="true"
   version="1.0">
  <metadata
     id="metadata2171">
    <rdf:RDF>
      <cc:Work
         rdf:about="">
        <dc:format>image/svg+xml</dc:format>
        <dc:type
           rdf:resource="http://purl.org/dc/dcmitype/StillImage" />
      </cc:Work>
    </rdf:RDF>
  </metadata>
  <defs
     id="defs2169" />
  <sodipodi:namedview
     inkscape:window-height="998"
     inkscape:window-width="1280"
     inkscape:pageshadow="2"
     inkscape:pageopacity="0.0"
     guidetolerance="10.0"
     gridtolerance="10.0"
     objecttolerance="10.0"
     borderopacity="1.0"
     bordercolor="#666666"
     pagecolor="#ffffff"
     id="base"
     inkscape:zoom="14.058823"
     inkscape:cx="42.500001"
     inkscape:cy="10"
     inkscape:window-x="-4"
     inkscape:window-y="-4"
     inkscape:current-layer="svg2160"
     height="20px"
     width="85px" />
  <g
     id="g2159"
     transform="matrix(2.083255e-2,0,0,2.1376699e-2,0,-4.0637632e-4)">
    <path
       id="path2162"
       d="M 1354.1811,934.01575 C 1336.2165,930.11811 1321.4055,919.24016 1316.4449,906.34252 C 1313.6102,899.00787 1312.2992,885.89764 1314.4252,885.9685 C 1315.1693,885.9685 1320.9449,886.78346 1327.252,887.74016 L 1338.6969,889.51181 L 1339.937,894.33071 C 1341.7087,901.31102 1345.7835,905.84646 1353.8268,909.92126 C 1360.7362,913.3937 1360.8071,913.42913 1374.2717,913.42913 C 1389.4016,913.42913 1395.3543,912.04724 1403.0433,906.76772 C 1408.1457,903.25984 1413.7795,895.1811 1415.9764,888.30709 C 1416.9331,885.22441 1417.7126,877.7126 1418.0315,867.93307 L 1418.563,852.41339 L 1412.5039,858.18898 C 1401.3071,868.8189 1386.3543,873.85039 1369.7008,872.53937 C 1361.3031,871.90157 1350.5315,869.10236 1344.2244,865.87795 C 1330.122,858.72047 1316.9409,840.61417 1311.1299,820.41732 C 1309.1102,813.36614 1308.8268,810.24803 1308.8268,793.91339 C 1308.7913,772.22835 1310.315,764.82283 1318.0039,748.91339 C 1321.7953,741.04724 1323.9567,738.03543 1330.689,731.33858 C 1343.1969,718.86614 1355.8819,713.69291 1374.3071,713.55118 C 1390.6772,713.40945 1403.185,718.19291 1414.7717,729.03543 L 1421.2913,735.16535 L 1421.2913,726.02362 L 1421.2913,716.91732 L 1433.374,716.91732 L 1445.4213,716.91732 L 1445.0315,797.66929 C 1444.5709,888.73228 1444.5709,888.69685 1437.3071,903.54331 C 1430.3622,917.75197 1416.4016,928.59449 1398.7913,933.41339 C 1389.2244,936.07087 1364.9528,936.38976 1354.1811,934.01575 z M 1392.6614,848.09055 C 1404.7795,842.74016 1412.6102,833.84646 1416.9685,820.48819 C 1419.2008,813.57874 1419.6614,810.17717 1420.0512,796.9252 C 1420.3701,785.23228 1420.0866,779.56299 1418.9173,773.92913 C 1413.248,746.92913 1391.1378,730.48819 1368.3189,736.33465 C 1351.8425,740.55118 1340.4331,754.15748 1336.6772,774.03543 C 1334.6929,784.52362 1335.2598,808.44094 1337.7047,817.26378 C 1342.3819,834.09449 1352.8346,845.53937 1367.2205,849.61417 C 1373.7402,851.45669 1386.815,850.67717 1392.6614,848.09055 z M 1178.8228,874.94882 C 1167.626,872.4685 1159.7244,868.21654 1152.9567,860.98819 C 1133.1496,839.79921 1140.5551,804.50787 1167.5551,791.50394 C 1176.5906,787.14567 1182.7559,785.72835 1206.7795,782.43307 C 1226.5157,779.70472 1236.189,777.93307 1245.0472,775.38189 L 1250.2913,773.85827 L 1250.2913,767.44488 C 1250.2913,752.56299 1246.4291,745.08661 1236.1181,740.01969 C 1227.3661,735.69685 1216.1693,734.17323 1204.4409,735.62598 C 1187.6457,737.75197 1179.815,743.52756 1174.5709,757.59449 C 1172.2323,763.86614 1171.4882,764.8937 1169.8228,764.53937 C 1168.7244,764.29134 1163.3031,763.54724 1157.811,762.87402 C 1152.3189,762.23622 1147.4291,761.35039 1147.0039,760.9252 C 1145.9055,759.93307 1150.689,745.86614 1154.0906,740.01969 C 1165.2165,720.92126 1194.8386,710.4685 1228.1102,713.83465 C 1255.8189,716.63386 1270.3465,726.55512 1275.378,746.07874 C 1276.0866,748.77165 1276.7953,769.88976 1277.2913,801.92126 C 1278.1063,856.20472 1278.1772,857.05512 1283.1024,868.1811 L 1285.1929,872.92913 L 1271.3031,872.92913 L 1257.4134,872.92913 L 1255.3937,866.16142 C 1254.2953,862.47638 1253.126,858.15354 1252.8071,856.62992 L 1252.2402,853.86614 L 1246.3583,858.40157 C 1238.6339,864.3189 1227.5079,870.20079 1218.7913,872.96457 C 1213.2283,874.73622 1208.8701,875.23228 1197.3189,875.51575 C 1189.3465,875.69291 1181.0197,875.40945 1178.8228,874.94882 z M 1216.9488,853.54724 C 1224.7441,851.45669 1233.7795,846.2126 1238.8819,840.75591 C 1247.0669,832.00394 1250.2913,821.48031 1250.2913,803.55118 C 1250.2913,795.54331 1250.1496,794.76378 1248.5551,795.40157 C 1243.0984,797.52756 1226.5157,801.24803 1210.6417,803.90551 C 1188.7795,807.55512 1183.6063,809.14961 1178.185,813.75591 C 1166.4567,823.78346 1167.9449,842.95276 1181.0197,850.6063 C 1189.9843,855.85039 1203.9094,856.98425 1216.9488,853.54724 z M 1628.2913,873.88583 C 1615.2874,870.48425 1606.8543,865.66535 1597.2165,856.02756 C 1590.5197,849.36614 1587.7913,845.75197 1585.0276,839.90551 C 1572.3425,813.36614 1572.4843,774.60236 1585.3465,748.91339 C 1593.1772,733.2874 1609.3701,720.77953 1628.1496,715.74803 C 1638.2126,713.05512 1657.6654,712.84252 1667.7992,715.32283 C 1689.4134,720.5315 1708.122,736.86614 1715.7402,757.16929 C 1720.4528,769.7126 1721.5866,778.46457 1721.0551,798.30709 C 1720.2402,827.39764 1715.4921,840.89764 1700.8583,855.49606 C 1691.5748,864.77953 1681.2638,870.55512 1667.9055,873.92126 C 1657.1693,876.61417 1638.8504,876.61417 1628.2913,873.88583 z M 1656.4252,853.90157 C 1669.8189,851.42126 1681.7953,842.06693 1687.748,829.48819 C 1692.9567,818.4685 1693.8071,813.47244 1693.8071,793.91339 C 1693.8071,775.48819 1692.8504,769.88976 1688.1024,760.46457 C 1682.9646,750.25984 1673.5748,741.50787 1663.6181,737.61024 C 1657.6654,735.30709 1647.815,734.52756 1640.7992,735.83858 C 1624.6063,738.85039 1612.8425,749.58661 1606.5,767.16142 C 1603.9843,774.07087 1603.878,775.34646 1603.878,794.40945 C 1603.878,813.57874 1603.9843,814.78346 1606.6063,822.57874 C 1614.2244,845.32677 1634.4213,858.01181 1656.4252,853.90157 z M 1777.6417,873.99213 C 1773.7087,872.92913 1768.5709,871.08661 1766.2323,869.88189 C 1759.4646,866.44488 1751.9173,858.61417 1748.1969,851.1378 C 1744.9016,844.58268 1744.7953,844.12205 1744.7953,831.89764 C 1744.7953,819.74409 1744.9016,819.17717 1748.126,812.62205 C 1753.7953,801.14173 1764.0354,792.70866 1777.9961,788.0315 C 1781.3976,786.8622 1793.9764,784.55906 1805.9882,782.85827 C 1828.7362,779.63386 1838.2323,777.89764 1847.0551,775.38189 L 1852.2992,773.85827 L 1852.2992,766.55906 C 1852.2992,750.79134 1846.5591,741.93307 1833.8031,738 C 1819.9843,733.7126 1802.1614,734.38583 1791.4961,739.55906 C 1784.7638,742.8189 1779.2008,749.72835 1776.2953,758.48031 C 1774.3465,764.29134 1773.815,765.03543 1771.937,764.5748 C 1770.7677,764.29134 1765.311,763.51181 1759.8189,762.83858 C 1754.2913,762.16535 1749.4724,761.35039 1749.0827,760.99606 C 1748.0551,760.11024 1751.4567,749.48031 1755.1417,742.25197 C 1763.4331,725.88189 1781.0079,716.45669 1808.1496,713.79921 C 1816.5118,712.98425 1822.3228,712.98425 1830.4016,713.83465 C 1857.437,716.66929 1871.0433,725.49213 1876.8543,743.91732 C 1878.378,748.70079 1878.6969,756.17717 1879.2992,801.4252 C 1880.0787,856.77165 1880.0079,856.09843 1885.3228,868.46457 L 1887.2362,872.92913 L 1873.3819,872.92913 L 1859.563,872.92913 L 1857.5079,866.16142 C 1856.374,862.47638 1855.1693,858.15354 1854.8504,856.62992 L 1854.248,853.83071 L 1849.8543,857.40945 C 1843.122,862.97244 1830.6496,869.70472 1821.7913,872.5748 C 1810.7008,876.22441 1788.4843,876.93307 1777.6417,873.99213 z M 1814.3858,854.50394 C 1824.0945,852.76772 1831.9606,849.01181 1838.5866,842.95276 C 1848.3307,834.05906 1852.2638,823.00394 1852.2992,804.57874 C 1852.2992,795.57874 1852.1575,794.76378 1850.563,795.40157 C 1845.1417,797.52756 1828.5591,801.24803 1812.8268,803.94094 C 1790.9291,807.62598 1785.4016,809.29134 1780.122,813.82677 C 1767.9331,824.24409 1770.3425,844.05118 1784.7992,851.70472 C 1788.5551,853.68898 1797.4843,855.74409 1802.7992,855.81496 C 1804.9961,855.81496 1810.2047,855.24803 1814.3858,854.50394 z M 2352.3661,874.87795 C 2329.7244,870.16535 2313.2835,857.72835 2304.2126,838.41732 C 2297.5866,824.27953 2294.5748,806.88189 2295.7441,789.44882 C 2297.5512,763.15748 2303.8228,747.46063 2318.315,732.93307 C 2331.7795,719.4685 2346.4134,713.79921 2367.815,713.65748 C 2382.0236,713.55118 2389.9606,715.25197 2401.122,720.6378 C 2410.2992,725.10236 2423.1614,737.18504 2428.1929,746.11417 C 2434.9961,758.19685 2439.2835,776.40945 2439.3189,793.16929 L 2439.3189,801.92126 L 2381.315,801.92126 L 2323.311,801.92126 L 2323.311,805.74803 C 2323.311,811.20472 2326.7126,823.78346 2329.8661,830.01969 C 2333.3031,836.82283 2341.9488,845.85827 2348.2913,849.33071 C 2354.9882,852.98031 2366.2559,855.24803 2373.5551,854.4685 C 2390.5276,852.59055 2400.1299,845.53937 2408.3504,828.95669 C 2410.3701,824.95276 2411.9646,822.93307 2413.1339,822.93307 C 2415.685,822.93307 2437.5827,825.83858 2437.9724,826.26378 C 2438.1496,826.44094 2437.3701,829.31102 2436.2362,832.67717 C 2433.8976,839.62205 2428.5472,848.79921 2423.0906,855.3189 C 2417.6693,861.76772 2405.6575,869.38583 2396.0197,872.53937 C 2388.8268,874.87795 2385.8858,875.23228 2372.315,875.51575 C 2363.7756,875.69291 2354.811,875.40945 2352.3661,874.87795 z M 2410.9016,774.92126 C 2407.8543,751.96063 2393.6102,737.22047 2372.5984,735.23622 C 2355.3071,733.6063 2337.9094,743.0315 2330.2205,758.16142 C 2327.4921,763.51181 2324.374,774.17717 2324.3386,778.1811 C 2324.3031,779.81102 2327.0315,779.91732 2367.9213,779.91732 L 2411.5748,779.91732 L 2410.9016,774.92126 z M 2750.811,874.94882 C 2739.6142,872.4685 2731.748,868.21654 2724.9449,860.98819 C 2706.626,841.3937 2711.4449,808.01575 2734.6181,794.09055 C 2743.8307,788.56299 2752.5472,786.15354 2775.4016,782.92913 C 2798.1142,779.70472 2809.5236,777.64961 2817.4252,775.27559 L 2822.315,773.85827 L 2822.315,767.44488 C 2822.315,752.56299 2818.4528,745.08661 2808.1063,740.01969 C 2795.8819,733.99606 2775.0827,733.53543 2762.3622,738.99213 C 2754.5315,742.35827 2748.4016,750.15354 2745.248,760.74803 C 2744.185,764.32677 2743.6181,764.96457 2741.8819,764.5748 C 2740.748,764.29134 2735.2913,763.54724 2729.7992,762.87402 C 2724.3071,762.23622 2719.4528,761.35039 2719.0276,760.96063 C 2717.6102,759.68504 2723.2441,744.23622 2727.3898,738 C 2729.6575,734.66929 2733.378,730.38189 2735.6811,728.4685 C 2758.8898,709.47638 2811.9685,707.91732 2835.1417,725.59843 C 2839.6417,729.03543 2843.8937,735.94488 2846.4803,743.91732 C 2848.4291,750.04724 2848.6063,753.55512 2849.2795,802.41732 C 2850.0591,857.94094 2850.1299,858.79134 2855.4449,869.17323 L 2857.3583,872.92913 L 2843.4331,872.92913 L 2829.5079,872.92913 L 2828.0197,869.17323 C 2827.2047,867.11811 2826,862.83071 2825.3622,859.67717 L 2824.1575,853.90157 L 2818.311,858.43701 C 2810.622,864.3189 2799.4961,870.20079 2790.815,872.96457 C 2785.2165,874.73622 2780.8583,875.23228 2769.3071,875.51575 C 2761.3346,875.69291 2753.0079,875.40945 2750.811,874.94882 z M 2788.7953,853.54724 C 2800.5945,850.3937 2812.4646,841.3937 2817.3189,831.89764 C 2820.2244,826.22835 2822.2441,814.67717 2822.2795,803.55118 C 2822.315,795.54331 2822.1378,794.72835 2820.5433,795.22441 C 2809.5591,798.69685 2798.6457,801.2126 2785.1102,803.44488 C 2759.2795,807.66142 2754.3189,809.18504 2748.9331,814.57087 C 2743.7598,819.74409 2742.0591,824.42126 2742.4843,832.42913 C 2742.9094,841.25197 2745.9213,846.46063 2753.0079,850.6063 C 2761.9724,855.85039 2775.9331,856.98425 2788.7953,853.54724 z M 3081.4016,873.92126 C 3060.4606,868.2874 3048.3071,852.94488 3048.3071,832.14567 C 3048.3071,819.4252 3051.6378,810.67323 3059.7165,802.06299 C 3069.3189,791.82283 3081.1181,786.93307 3103.6181,783.85039 C 3123.4252,781.15748 3144.437,777.40157 3151.1693,775.38189 L 3156.5197,773.7874 L 3156.0945,764.11417 C 3155.7756,756.70866 3155.1732,753.44882 3153.5433,750.25984 C 3148.2638,740.19685 3136.8898,735.41339 3118.3228,735.44882 C 3095.752,735.55512 3085.8307,741.93307 3079.7008,760.25197 C 3078.3189,764.3622 3077.7874,765 3075.9449,764.5748 C 3074.7756,764.32677 3069.5315,763.54724 3064.3228,762.90945 C 3051.2835,761.31496 3052.1339,761.88189 3053.9055,755.71654 C 3056.5276,746.43307 3061.9134,736.68898 3067.5118,731.09055 C 3073.4291,725.1378 3084.8386,719.07874 3094.937,716.49213 C 3104.2559,714.11811 3120.8031,712.70079 3130.2992,713.40945 C 3163.6063,715.99606 3179.126,727.47638 3182.3858,751.9252 C 3182.8465,755.50394 3183.2717,776.40945 3183.3071,798.41339 C 3183.378,851.1378 3183.8386,855.46063 3190.9606,871.68898 C 3191.3858,872.64567 3188.3386,872.92913 3177.5669,872.92913 L 3163.6063,872.92913 L 3161.4449,866.40945 C 3160.2756,862.83071 3159.3189,858.82677 3159.3189,857.55118 C 3159.3189,856.31102 3159.0354,855 3158.752,854.6811 C 3158.4331,854.3622 3155.2087,856.34646 3151.6299,859.0748 C 3143.7992,864.99213 3134.3386,869.88189 3124.8071,872.92913 C 3114.5315,876.22441 3091.8543,876.75591 3081.4016,873.92126 z M 3125.7992,852.76772 C 3133.6654,850.14567 3140.2913,845.85827 3145.6772,839.83465 C 3153.6496,830.97638 3156.3071,822.18898 3156.3071,804.64961 C 3156.3071,795.57874 3156.1654,794.76378 3154.5709,795.40157 C 3148.937,797.56299 3132.6378,801.24803 3116.4449,803.97638 C 3096,807.41339 3088.8425,809.64567 3083.811,814.0748 C 3074.2795,822.43701 3073.7126,837.49606 3082.6063,846.74409 C 3086.6811,850.99606 3090.4016,852.98031 3097.311,854.61024 C 3104.4685,856.27559 3117.9685,855.38976 3125.7992,852.76772 z M 2668.5709,873.88583 C 2658.2953,871.83071 2648.9055,864.46063 2646.1772,856.27559 C 2645.2205,853.40551 2644.7598,837.60236 2644.3701,794.90551 L 2643.8031,737.43307 L 2634.0591,737.14961 L 2624.315,736.86614 L 2624.315,726.87402 L 2624.315,716.91732 L 2634.2717,716.91732 L 2644.2638,716.91732 L 2644.5472,697.25197 L 2644.7953,677.58661 L 2656.8071,670.25197 C 2663.3976,666.24803 2669.1378,662.91732 2669.563,662.91732 C 2669.9882,662.91732 2670.3071,675.07087 2670.3071,689.91732 L 2670.3071,716.91732 L 2683.311,716.91732 L 2696.315,716.91732 L 2696.315,726.90945 L 2696.315,736.93701 L 2683.311,736.93701 L 2670.3071,736.93701 L 2670.3071,788.52756 C 2670.3071,845.25591 2670.2362,844.68898 2676.3661,848.30315 C 2678.7756,849.72047 2681.1496,850.03937 2688.0945,849.79134 L 2696.7756,849.47244 L 2698.4764,859.46457 C 2699.3976,864.92126 2700.2126,870.16535 2700.248,871.05118 C 2700.3543,874.09843 2679.2008,875.97638 2668.5709,873.88583 z M 1485.3189,794.90551 L 1485.3189,716.91732 L 1496.7638,716.91732 L 1508.2441,716.91732 L 1508.5276,728.61024 L 1508.811,740.26772 L 1512.7795,733.85433 C 1523.0551,717.12992 1533.7913,711.24803 1549.0984,713.87008 C 1555.2992,714.93307 1569.2953,720.4252 1569.3307,721.80709 C 1569.3307,722.16142 1567.4528,727.72441 1565.1142,734.20866 C 1561.748,743.59843 1560.5787,745.83071 1559.3386,745.29921 C 1544.0669,738.56693 1532.1614,739.55906 1523.0906,748.34646 C 1518.874,752.45669 1516.5354,757.16929 1513.9488,766.91339 C 1512.1417,773.7874 1511.9291,778.53543 1511.5748,823.67717 L 1511.1496,872.92913 L 1498.2165,872.92913 L 1485.3189,872.92913 L 1485.3189,794.90551 z M 1919.3031,764.8937 L 1919.3031,656.85827 L 1932.5551,657.14173 L 1945.8071,657.4252 L 1946.0551,765.17717 L 1946.3031,872.92913 L 1932.8031,872.92913 L 1919.3031,872.92913 L 1919.3031,764.8937 z M 1987.2992,794.90551 L 1987.2992,716.91732 L 2000.3031,716.91732 L 2013.3071,716.91732 L 2013.3071,794.90551 L 2013.3071,872.92913 L 2000.3031,872.92913 L 1987.2992,872.92913 L 1987.2992,794.90551 z M 2053.311,794.90551 L 2053.311,716.91732 L 2065.3228,716.91732 L 2077.2992,716.91732 L 2077.2992,727.47638 L 2077.2992,738.03543 L 2083.0748,731.79921 C 2096.5748,717.16535 2114.1142,711 2133.8858,713.90551 C 2148.5551,716.06693 2160.2126,723.50787 2165.9173,734.35039 L 2168.7165,739.73622 L 2175.2717,732.64961 C 2187.8858,719.00787 2200.1811,713.48031 2217.7913,713.51575 C 2239.122,713.58661 2253.0472,721.70079 2260.3819,738.3189 C 2264.8465,748.41732 2265.2362,754.83071 2265.2717,815.66929 L 2265.3071,872.92913 L 2252.3031,872.92913 L 2239.2992,872.92913 L 2239.2638,823.1811 C 2239.2638,770.0315 2238.626,757.62992 2235.5433,750.75591 C 2231.1496,740.94094 2223.248,736.47638 2210.315,736.51181 C 2203.1929,736.51181 2200.8543,736.97244 2195.8937,739.24016 C 2184.1654,744.62598 2178.1063,751.88976 2174.8465,764.4685 C 2173.5709,769.35827 2173.3228,778.78346 2173.3228,821.62205 L 2173.3228,872.92913 L 2159.8583,872.92913 L 2146.3937,872.92913 L 2146.1102,815.17323 C 2145.7913,757.59449 2145.7913,757.41732 2143.5236,751.74803 C 2140.6535,744.62598 2135.1969,739.55906 2128.1811,737.4685 C 2121.9449,735.62598 2118.2244,735.51969 2111.1024,737.04331 C 2096.7165,740.09055 2087.5039,748.84252 2082.9685,763.75984 C 2081.0551,769.99606 2080.9134,773.61024 2080.5591,821.65748 L 2080.1693,872.92913 L 2066.7402,872.92913 L 2053.311,872.92913 L 2053.311,794.90551 z M 2471.315,794.90551 L 2471.315,716.91732 L 2483.2913,716.91732 L 2495.3031,716.91732 L 2495.3031,727.40551 L 2495.3031,737.8937 L 2502.5669,730.52362 C 2514.3661,718.58268 2526.626,713.62205 2544.8031,713.55118 C 2556.0709,713.51575 2562.874,714.8622 2572.2283,719.07874 C 2584.2047,724.46457 2589.6969,730.59449 2595.2244,744.80315 L 2597.7756,751.42913 L 2598.0945,812.16142 L 2598.4134,872.92913 L 2585.4449,872.92913 L 2572.4409,872.92913 L 2572.0512,817.68898 C 2571.626,753.37795 2571.7323,754.26378 2562.8386,745.33465 C 2556.1417,738.6378 2549.9055,736.37008 2538.3189,736.54724 C 2528.5394,736.65354 2521.4882,738.92126 2513.7992,744.37795 C 2507.8465,748.62992 2503.9843,754.22835 2501.0787,762.83858 C 2498.9173,769.25197 2498.8465,770.81102 2498.5276,821.16142 L 2498.2087,872.92913 L 2484.7441,872.92913 L 2471.315,872.92913 L 2471.315,794.90551 z M 2889.3189,794.90551 L 2889.3189,716.91732 L 2901.2598,716.91732 L 2913.2362,716.91732 L 2913.5197,728.11417 L 2913.8031,739.27559 L 2917.5591,733.1811 C 2927.4449,717.12992 2938.9606,711.14173 2954.4449,713.94094 C 2959.4764,714.8622 2972.4803,719.75197 2974.0394,721.31102 C 2974.4646,721.73622 2966.2795,744.09449 2965.2874,745.26378 C 2964.8622,745.72441 2962.5945,745.08661 2960.185,743.84646 C 2957.1732,742.2874 2953.4173,741.43701 2948.0669,741.11811 C 2941.1929,740.72835 2939.7402,740.97638 2934.8858,743.35039 C 2925.4252,747.99213 2920.5,756.03543 2917.8425,771.30709 C 2916.6024,778.46457 2916.3189,789.23622 2916.3189,826.54724 L 2916.3189,872.92913 L 2902.8189,872.92913 L 2889.3189,872.92913 L 2889.3189,794.90551 z M 2990.3031,794.90551 L 2990.3031,716.91732 L 3003.3071,716.91732 L 3016.311,716.91732 L 3016.311,794.90551 L 3016.311,872.92913 L 3003.3071,872.92913 L 2990.3031,872.92913 L 2990.3031,794.90551 z M 1987.2992,672.41339 L 1987.2992,656.92913 L 2000.3031,656.92913 L 2013.3071,656.92913 L 2013.3071,672.41339 L 2013.3071,687.93307 L 2000.3031,687.93307 L 1987.2992,687.93307 L 1987.2992,672.41339 z M 2990.3031,672.41339 L 2990.3031,656.92913 L 3003.3071,656.92913 L 3016.311,656.92913 L 3016.311,672.41339 L 3016.311,687.93307 L 3003.3071,687.93307 L 2990.3031,687.93307 L 2990.3031,672.41339 z M 1256.811,599.31496 C 1238.0669,597.43701 1230.874,596.44488 1217.9764,593.85827 C 1154.126,581.10236 1099.9134,545.88189 1057.2874,489.40157 C 1020.2598,440.29134 1001.1614,386.43307 997.29921,320.1378 C 993.15354,248.95276 1010.6575,181.20472 1047.4724,125.92913 C 1059.6614,107.61024 1067.7047,97.61811 1082.7992,82.027559 C 1131.0236,32.208661 1187.5039,6.023622 1257.874,0.8503937 C 1320.626,-3.7913386 1380.5787,11.090551 1429.122,43.299213 C 1474.3701,73.311024 1514.8346,122.91732 1536.7677,175.25197 C 1560.0827,230.95276 1566.7441,298.45276 1555.2638,362.90551 C 1546.5118,411.90945 1526.2087,456.73228 1494.7441,496.41732 C 1448.6102,554.63386 1391.7402,587.51575 1320.2008,597.43701 C 1309.3583,598.9252 1265.8465,600.23622 1256.811,599.31496 z M 1302.3425,503.8937 C 1330.937,500.45669 1353.5787,492.30709 1375.7598,477.49606 C 1420.5118,447.66142 1451.4449,392.74016 1459.4882,328.9252 C 1461.4724,313.19291 1461.189,273.33071 1458.9921,258.90945 C 1451.6575,210.8622 1432.063,172.09843 1399.0394,140.27953 C 1366.1575,108.60236 1322.7874,93.366142 1270.8425,95.208661 C 1225.0276,96.838583 1188.4252,111.54331 1158.5197,140.31496 C 1127.0551,170.61024 1106.8583,210.72047 1099.8071,256.9252 C 1097.5748,271.55906 1096.7598,303.59055 1098.248,318.43701 C 1104.8386,384.37795 1139.315,444.61417 1189.8425,478.45276 C 1210.9252,492.59055 1233.1417,500.77559 1259.8228,504.24803 C 1266.378,505.09843 1294.3346,504.85039 1302.3425,503.8937 z M 3336.3071,598.8189 C 3278.4094,592.29921 3231.4252,561.68504 3194.6102,506.40945 C 3191.2795,501.48425 3187.5591,495.60236 3186.2835,493.37008 L 3183.9803,489.29528 L 3214.3819,459.2126 L 3244.748,429.16535 L 3247.2992,434.79921 C 3254.8819,451.59449 3264.3425,464.81102 3278.9409,478.98425 C 3307.8898,507.01181 3335.9882,518.77559 3367.2047,515.83465 C 3393.3898,513.38976 3413.5157,501.73228 3428.2205,480.43701 C 3440.126,463.21654 3445.2992,447.30709 3446.0787,425.51575 C 3447,399.54331 3441.4724,382.9252 3426.5197,366.76772 C 3413.4094,352.62992 3374.1496,330.69685 3316.8189,305.4685 C 3263.1024,281.83465 3232.5945,256.42913 3216.3307,221.70472 C 3205.063,197.64567 3202.4764,164.79921 3209.315,131.74016 C 3221.185,74.30315 3262.9252,26.574803 3316.9606,8.6102362 C 3349.7362,-2.2677165 3393.1417,-2.6929134 3433.4646,7.476378 C 3467.0906,15.944882 3497.3504,33.059055 3520.7362,56.799213 L 3527.6457,63.814961 L 3523.4291,69.271654 C 3516.6614,78.023622 3503.2677,90.318898 3497.2441,93.259843 C 3480.2717,101.55118 3462.9449,100.20472 3434.2087,88.370079 C 3416.3858,81.035433 3408.5906,79.511811 3389.315,79.547244 C 3369.7559,79.582677 3362.0669,81.248031 3347.8228,88.405512 C 3331.7717,96.519685 3319.5827,108.35433 3312.815,122.42126 C 3307.4646,133.58268 3305.9055,140.74016 3305.8701,154.91339 C 3305.7992,166.88976 3305.9409,167.70472 3308.9173,173.90551 C 3317.2441,191.37402 3337.5827,209.90551 3372.4843,231.83858 C 3381.9449,237.75591 3429.815,264.72047 3465.815,284.38583 C 3484.4173,294.55512 3487.7126,296.82283 3500.185,307.87795 C 3514.8189,320.81102 3529.878,341.3622 3536.6811,357.62598 C 3546.2835,380.51575 3548.5157,406.87795 3543.7677,440.92913 C 3537.3543,487.02756 3519.6024,523.09843 3488.5984,553.00394 C 3461.1024,579.57874 3426.378,594.60236 3382.4409,598.88976 C 3370.4646,600.09449 3347.185,600.02362 3336.3071,598.8189 z M 1984.8189,549.88583 C 1967.7756,524.62205 1948.9961,496.84252 1943.1142,488.19685 C 1937.2323,479.51575 1927.8071,465.51969 1922.1378,457.12205 C 1916.4331,448.68898 1905.9449,433.16929 1898.752,422.61024 C 1886.7402,404.8937 1857.6142,361.94882 1754.8937,210.18898 C 1733.5984,178.72441 1715.7402,152.6811 1715.2441,152.39764 C 1714.6772,152.04331 1714.3228,186.94488 1714.3228,243.1063 C 1714.3228,293.35039 1714.0039,390.79134 1713.6496,459.67323 L 1712.9764,584.92913 L 1664.6102,584.92913 L 1616.2795,584.92913 L 1616.5984,335.65748 C 1616.9173,64.098425 1616.4921,84.082677 1622.1969,67.677165 C 1633.9606,33.838583 1663.5118,12.933071 1699.6181,12.933071 C 1720.4173,12.933071 1740.4724,21.791339 1755.3543,37.559055 C 1758.3661,40.783465 1766.0197,51.413386 1772.3268,61.192913 C 1778.6339,70.937008 1786.748,83.444882 1790.2913,88.901575 C 1793.8701,94.393701 1800.248,104.17323 1804.4646,110.65748 C 1808.6457,117.14173 1822.6417,138.61417 1835.5394,158.42126 C 1875.7205,220.11024 1932.9094,307.94882 1972.6654,369.07087 L 2010.7913,427.7126 L 2011.4646,413.5748 C 2011.7835,405.77953 2012.3504,333.70866 2012.6693,253.41732 L 2013.2362,107.43307 L 2015.7165,97.334646 C 2027.8701,47.940945 2058.626,18.318898 2101.0748,15.23622 L 2109.2953,14.633858 L 2109.2953,305.29134 L 2109.2953,595.91339 L 2062.5591,595.87795 L 2015.8228,595.84252 L 1984.8189,549.88583 z M 2577.5079,591.66142 C 2575.9134,589.32283 2559.4016,564.90945 2540.7992,537.41339 C 2522.1969,509.91732 2502.4252,480.68504 2496.7913,472.42913 C 2491.1929,464.17323 2461.1811,419.84646 2430.1063,373.9252 C 2399.0315,328.00394 2366.752,280.31102 2358.3898,267.90945 C 2349.9921,255.54331 2328.9094,224.3622 2311.4764,198.60236 L 2279.7992,151.75984 L 2279.1969,205.08661 C 2278.878,234.4252 2278.5236,310.21654 2278.4528,373.5 C 2278.3819,436.8189 2277.9921,510.27165 2277.6378,536.77559 L 2276.9646,584.92913 L 2229.1299,584.92913 L 2181.2953,584.92913 L 2181.5433,333.67323 L 2181.7913,82.417323 L 2184.5906,73.417323 C 2192.4567,48.11811 2206.063,31.322835 2226.6142,21.543307 C 2241.1063,14.633858 2246.5276,13.429134 2263.3228,13.464567 C 2274.5906,13.464567 2279.126,13.889764 2283.8031,15.307087 C 2296.2756,19.204724 2311.8661,28.559055 2319.9803,37.098425 C 2322.4961,39.755906 2374.1575,118.24016 2410.9724,175.42913 C 2414.5157,180.92126 2422.7008,193.53543 2429.185,203.42126 C 2435.6339,213.30709 2462.4567,254.48031 2488.7835,294.90945 C 2543.2441,378.6378 2561.4567,406.59449 2569.8898,419.42126 L 2575.8071,428.42126 L 2576.8701,266.42126 L 2577.9331,104.42126 L 2580.6614,94.535433 C 2593.9488,46.204724 2623.5,18.46063 2664.9921,15.271654 L 2673.3189,14.633858 L 2673.3189,305.29134 L 2673.3189,595.91339 L 2626.8661,595.91339 L 2580.4134,595.91339 L 2577.5079,591.66142 z M 606.29528,299.83465 L 606.29528,14.775591 L 689.56299,15.200787 C 778.53543,15.625984 780.69685,15.767717 805.25197,21.082677 C 834.80315,27.46063 859.57087,40.110236 877.32283,57.897638 C 897.83858,78.413386 909.14173,104.10236 914.42126,141.90945 C 916.19291,154.62992 915.90945,186.30709 913.9252,199.02756 C 909.03543,230.45669 895.03937,257.24409 874.62992,274.25197 C 868.7126,279.2126 867.61417,280.55906 869.0315,281.05512 C 870.02362,281.40945 874.41732,282.64961 878.81102,283.85433 C 907.08661,291.54331 929.51575,312.12992 945.85039,345.43701 C 955.52362,365.10236 960.37795,384.09449 962.32677,409.53543 C 963.38976,423.46063 962.50394,444.15354 960.27165,457.93701 C 948.43701,530.71654 893.12598,576 806.31496,583.86614 C 799.29921,584.50394 757.98425,584.92913 700.54724,584.92913 L 606.29528,584.92913 L 606.29528,299.83465 z M 790.29921,505.52362 C 824.20866,499.0748 846.1063,484.47638 857.76378,460.41732 C 864.56693,446.45669 868.0748,426.61417 866.97638,408.43701 C 864.77953,372.40157 846.67323,349.29921 811.80709,338.0315 C 791.29134,331.37008 777.72047,329.91732 735.83858,329.91732 L 703.31102,329.91732 L 703.31102,419.0315 L 703.31102,508.11024 L 742.57087,507.61417 C 772.86614,507.25984 783.74409,506.76378 790.29921,505.52362 z M 774.3189,257.0315 C 796.2874,251.3622 811.98425,237.9685 820.13386,217.98425 C 821.33858,215.00787 823.2874,208.02756 824.42126,202.5 C 826.22835,193.7126 826.44094,189.92126 826.01575,172.91339 C 825.62598,156.11811 825.23622,152.07874 823.00394,143.71654 C 815.27953,114.37795 798.48425,97.724409 770.31496,91.417323 C 764.5748,90.141732 755.75197,89.610236 733.0748,89.220472 L 703.31102,88.688976 L 703.31102,174.40157 L 703.31102,260.07874 L 734.56299,259.65354 C 762.62598,259.26378 766.66535,259.01575 774.3189,257.0315 z M 2894.315,455.81102 L 2894.315,326.69291 L 2816.9291,192.54331 C 2774.3386,118.77165 2733.874,48.649606 2726.9646,36.673228 L 2714.4213,14.917323 L 2771.7165,14.917323 L 2829.0118,14.917323 L 2879.8583,113.66929 C 2907.815,167.98819 2932.5827,215.92913 2934.8504,220.1811 L 2938.9961,227.97638 L 2981.374,152.18504 C 3004.689,110.51575 3031.4409,62.681102 3040.8307,45.92126 L 3057.874,15.413386 L 3115.0984,15.165354 C 3146.563,15.023622 3172.3228,15.094488 3172.3228,15.307087 C 3172.3228,15.555118 3157.2992,41.314961 3138.9803,72.566929 C 3120.6614,103.85433 3083.9173,166.53543 3057.3425,211.9252 C 3030.7677,257.31496 3004.7953,301.57087 2999.6575,310.25197 L 2990.3031,326.12598 L 2990.3031,455.52756 L 2990.3031,584.92913 L 2942.2913,584.92913 L 2894.315,584.92913 L 2894.315,455.81102 z M 3561.9449,570.68504 C 3564.9567,562.8189 3614.7756,431.32677 3672.6732,278.43307 L 3777.9449,0.42519685 L 3821.2795,0.42519685 L 3864.5787,0.42519685 L 3866.4567,5.4212598 C 3867.4843,8.1850394 3915.9921,139.57087 3974.2441,297.4252 L 4080.1535,584.43307 L 4029.0236,584.6811 C 4000.9252,584.82283 3977.6102,584.61024 3977.185,584.18504 C 3976.7953,583.75984 3965.811,554.95276 3952.7717,520.15748 L 3929.0669,456.90945 L 3819.3661,456.90945 L 3709.6654,456.90945 L 3684.2953,520.93701 L 3658.9252,584.92913 L 3607.7244,584.92913 L 3556.5236,584.92913 L 3561.9449,570.68504 z M 3902.315,380.19685 C 3902.315,378.03543 3815.8583,140.98819 3815.3268,141.62598 C 3814.937,142.08661 3796.5118,195.51969 3774.3307,260.43307 C 3752.1496,325.31102 3733.8307,378.99213 3733.5472,379.66535 C 3733.1929,380.65748 3750.4488,380.90551 3817.7008,380.90551 C 3864.2244,380.90551 3902.315,380.58661 3902.315,380.19685 z "
       style="fill:#000000;fill-opacity:1;fill-rule:nonzero;stroke:none" />
    <path
       id="path2164"
       d="M 5.3149606,573.02362 C 5.3149606,547.83071 12.791339,509.27953 21.720472,488.40945 C 22.429134,486.77953 24.69685,481.35827 26.751969,476.43307 C 41.669291,440.4685 69.448819,404.71654 103.03937,378.2126 C 195.12992,305.53937 326.09055,305.7874 418.32283,378.81496 C 430.15748,388.20472 450.81496,408.68504 459.70866,419.91732 C 477.6378,442.52362 493.22835,471.29528 502.26378,498.43701 C 510.05906,521.96457 515.30315,552.08268 515.30315,573.59055 L 515.30315,581.91732 L 260.29134,581.91732 L 5.3149606,581.91732 L 5.3149606,573.02362 z "
       style="fill:#c7403c;fill-opacity:1;fill-rule:nonzero;stroke:none" />
    <path
       id="path2166"
       d="M 232.29921,268.75984 C 211.96063,266.88189 172.52362,257.98819 174.01181,255.61417 C 174.33071,255.08268 174.11811,254.90551 173.51575,255.29528 C 171.38976,256.6063 137.87008,242.43307 138.9685,240.66142 C 139.32283,240.09449 139.14567,239.91732 138.57874,240.27165 C 137.19685,241.12205 123.76772,233.53937 110.94094,224.6811 C 44.751969,179.00787 4.6417323,106.65354 0.67322835,25.688976 L 0,11.905512 L 255.15354,11.905512 L 510.30709,11.905512 L 510.30709,21.968504 C 510.30709,50.633858 502.40551,86.562992 489.72047,115.68898 C 476.14961,146.76378 459.85039,170.5748 435.40157,194.98819 C 422.4685,207.85039 409.21654,218.90551 396.81496,227.09055 C 348.30709,259.12205 289.38189,274.03937 232.29921,268.75984 z "
       style="fill:#c7403c;fill-opacity:1;fill-rule:nonzero;stroke:none" />
  </g>
</svg>
